<svg width="30" height="30" viewBox="0 0 30 30" fill="none" xmlns="http://www.w3.org/2000/svg">
<path d="M25.7812 3.28125H4.21875C3.7002 3.28125 3.28125 3.7002 3.28125 4.21875V25.7812C3.28125 26.2998 3.7002 26.7188 4.21875 26.7188H25.7812C26.2998 26.7188 26.7188 26.2998 26.7188 25.7812V4.21875C26.7188 3.7002 26.2998 3.28125 25.7812 3.28125ZM24.6094 24.6094H5.39062V5.39062H24.6094V24.6094Z" fill="#1890FF"/>
<path d="M5.39062 24.6094H24.6094V5.39062H5.39062V24.6094ZM9.19922 13.834H10.5732C10.8721 13.834 11.1562 13.9775 11.332 14.2236L13.418 17.1182L18.0234 10.7314C18.1992 10.4883 18.4805 10.3418 18.7822 10.3418H20.1562C20.3467 10.3418 20.458 10.5586 20.3467 10.7139L14.1768 19.2686C14.0905 19.3889 13.9768 19.487 13.8451 19.5546C13.7134 19.6223 13.5675 19.6576 13.4194 19.6576C13.2714 19.6576 13.1254 19.6223 12.9937 19.5546C12.862 19.487 12.7483 19.3889 12.6621 19.2686L9.00879 14.2061C8.89746 14.0508 9.00879 13.834 9.19922 13.834Z" fill="#CDFFCD"/>
<path d="M12.661 19.2686C12.7473 19.3889 12.8609 19.487 12.9926 19.5546C13.1243 19.6223 13.2703 19.6576 13.4183 19.6576C13.5664 19.6576 13.7123 19.6223 13.844 19.5546C13.9757 19.487 14.0894 19.3889 14.1757 19.2686L20.3456 10.7139C20.4569 10.5586 20.3456 10.3418 20.1552 10.3418H18.7811C18.4794 10.3418 18.1981 10.4883 18.0223 10.7314L13.4169 17.1182L11.3309 14.2236C11.1552 13.9775 10.871 13.834 10.5721 13.834H9.19812C9.0077 13.834 8.89637 14.0508 9.0077 14.2061L12.661 19.2686Z" fill="#1890FF"/>
</svg>
