<svg width="24" height="24" viewBox="0 0 24 24" fill="none" xmlns="http://www.w3.org/2000/svg">
<path d="M13.2139 12L19.3662 4.66641C19.4693 4.54453 19.3826 4.35938 19.2232 4.35938H17.3529C17.2428 4.35938 17.1373 4.40859 17.0646 4.49297L11.9904 10.5422L6.91621 4.49297C6.8459 4.40859 6.74043 4.35938 6.62793 4.35938H4.75762C4.59824 4.35938 4.51153 4.54453 4.61465 4.66641L10.767 12L4.61465 19.3336C4.59155 19.3608 4.57673 19.394 4.57195 19.4293C4.56717 19.4647 4.57263 19.5006 4.58768 19.533C4.60273 19.5653 4.62675 19.5926 4.65687 19.6117C4.68699 19.6308 4.72196 19.6408 4.75762 19.6406H6.62793C6.73809 19.6406 6.84356 19.5914 6.91621 19.507L11.9904 13.4578L17.0646 19.507C17.135 19.5914 17.2404 19.6406 17.3529 19.6406H19.2232C19.3826 19.6406 19.4693 19.4555 19.3662 19.3336L13.2139 12Z" fill="black"/>
</svg>
