<svg width="30" height="30" viewBox="0 0 30 30" fill="none" xmlns="http://www.w3.org/2000/svg">
<path d="M22.2979 8.44629L20.1504 6.29883L9.52441 16.9219L9.06738 19.5293L11.6719 19.0693L22.2979 8.44629Z" fill="#E6F7FF"/>
<path d="M25.7812 24.4922H4.21875C3.7002 24.4922 3.28125 24.9111 3.28125 25.4297V26.4844C3.28125 26.6133 3.38672 26.7188 3.51562 26.7188H26.4844C26.6133 26.7188 26.7188 26.6133 26.7188 26.4844V25.4297C26.7188 24.9111 26.2998 24.4922 25.7812 24.4922ZM7.54981 22.0312C7.6084 22.0312 7.66699 22.0254 7.72559 22.0166L12.6533 21.1523C12.7119 21.1406 12.7676 21.1143 12.8086 21.0703L25.2275 8.65137C25.2547 8.62426 25.2762 8.59207 25.2909 8.55663C25.3056 8.52119 25.3132 8.48319 25.3132 8.44482C25.3132 8.40645 25.3056 8.36846 25.2909 8.33302C25.2762 8.29758 25.2547 8.26539 25.2275 8.23828L20.3584 3.36621C20.3027 3.31055 20.2295 3.28125 20.1504 3.28125C20.0713 3.28125 19.998 3.31055 19.9424 3.36621L7.52344 15.7852C7.47949 15.8291 7.45313 15.8818 7.44141 15.9404L6.57715 20.8682C6.54865 21.0251 6.55883 21.1866 6.60682 21.3388C6.6548 21.4909 6.73914 21.629 6.85254 21.7412C7.0459 21.9287 7.28906 22.0312 7.54981 22.0312V22.0312ZM9.52441 16.9219L20.1504 6.29883L22.2979 8.44629L11.6719 19.0693L9.06738 19.5293L9.52441 16.9219V16.9219Z" fill="#1890FF"/>
</svg>
