<svg width="93" height="22" viewBox="0 0 93 22" fill="none" xmlns="http://www.w3.org/2000/svg">
<rect x="0.5" y="0.5" width="92" height="21" rx="3.5" fill="#F5F5F5"/>
<path d="M11.5039 11.1973C10.5391 10.9199 9.83594 10.5801 9.39453 10.1777C8.95703 9.77148 8.73828 9.27148 8.73828 8.67773C8.73828 8.00586 9.00586 7.45117 9.54102 7.01367C10.0801 6.57227 10.7793 6.35156 11.6387 6.35156C12.2246 6.35156 12.7461 6.46484 13.2031 6.69141C13.6641 6.91797 14.0195 7.23047 14.2695 7.62891C14.5234 8.02734 14.6504 8.46289 14.6504 8.93555H13.5195C13.5195 8.41992 13.3555 8.01562 13.0273 7.72266C12.6992 7.42578 12.2363 7.27734 11.6387 7.27734C11.084 7.27734 10.6504 7.40039 10.3379 7.64648C10.0293 7.88867 9.875 8.22656 9.875 8.66016C9.875 9.00781 10.0215 9.30273 10.3145 9.54492C10.6113 9.7832 11.1133 10.002 11.8203 10.2012C12.5312 10.4004 13.0859 10.6211 13.4844 10.8633C13.8867 11.1016 14.1836 11.3809 14.375 11.7012C14.5703 12.0215 14.668 12.3984 14.668 12.832C14.668 13.5234 14.3984 14.0781 13.8594 14.4961C13.3203 14.9102 12.5996 15.1172 11.6973 15.1172C11.1113 15.1172 10.5645 15.0059 10.0566 14.7832C9.54883 14.5566 9.15625 14.248 8.87891 13.8574C8.60547 13.4668 8.46875 13.0234 8.46875 12.5273H9.59961C9.59961 13.043 9.78906 13.4512 10.168 13.752C10.5508 14.0488 11.0605 14.1973 11.6973 14.1973C12.291 14.1973 12.7461 14.0762 13.0625 13.834C13.3789 13.5918 13.5371 13.2617 13.5371 12.8438C13.5371 12.4258 13.3906 12.1035 13.0977 11.877C12.8047 11.6465 12.2734 11.4199 11.5039 11.1973ZM18.5762 15.1172C17.7168 15.1172 17.0176 14.8359 16.4785 14.2734C15.9395 13.707 15.6699 12.9512 15.6699 12.0059V11.8066C15.6699 11.1777 15.7891 10.6172 16.0273 10.125C16.2695 9.62891 16.6055 9.24219 17.0352 8.96484C17.4688 8.68359 17.9375 8.54297 18.4414 8.54297C19.2656 8.54297 19.9062 8.81445 20.3633 9.35742C20.8203 9.90039 21.0488 10.6777 21.0488 11.6895V12.1406H16.7539C16.7695 12.7656 16.9512 13.2715 17.2988 13.6582C17.6504 14.041 18.0957 14.2324 18.6348 14.2324C19.0176 14.2324 19.3418 14.1543 19.6074 13.998C19.873 13.8418 20.1055 13.6348 20.3047 13.377L20.9668 13.8926C20.4355 14.709 19.6387 15.1172 18.5762 15.1172ZM18.4414 9.43359C18.0039 9.43359 17.6367 9.59375 17.3398 9.91406C17.043 10.2305 16.8594 10.6758 16.7891 11.25H19.9648V11.168C19.9336 10.6172 19.7852 10.1914 19.5195 9.89062C19.2539 9.58594 18.8945 9.43359 18.4414 9.43359ZM23.4863 15H22.4023V6H23.4863V15ZM25.7598 15V9.49805H24.7578V8.66016H25.7598V8.00977C25.7598 7.33008 25.9414 6.80469 26.3047 6.43359C26.668 6.0625 27.1816 5.87695 27.8457 5.87695C28.0957 5.87695 28.3438 5.91016 28.5898 5.97656L28.5312 6.85547C28.3477 6.82031 28.1523 6.80273 27.9453 6.80273C27.5938 6.80273 27.3223 6.90625 27.1309 7.11328C26.9395 7.31641 26.8438 7.60938 26.8438 7.99219V8.66016H28.1973V9.49805H26.8438V15H25.7598ZM37.3672 11.0566H33.6699V14.0801H37.9648V15H32.5449V6.46875H37.9062V7.39453H33.6699V10.1367H37.3672V11.0566ZM38.8145 11.7773C38.8145 10.8047 39.0449 10.0234 39.5059 9.43359C39.9668 8.83984 40.5703 8.54297 41.3164 8.54297C42.0586 8.54297 42.6465 8.79688 43.0801 9.30469V6H44.1641V15H43.168L43.1152 14.3203C42.6816 14.8516 42.0781 15.1172 41.3047 15.1172C40.5703 15.1172 39.9707 14.8164 39.5059 14.2148C39.0449 13.6133 38.8145 12.8281 38.8145 11.8594V11.7773ZM39.8984 11.9004C39.8984 12.6191 40.0469 13.1816 40.3438 13.5879C40.6406 13.9941 41.0508 14.1973 41.5742 14.1973C42.2617 14.1973 42.7637 13.8887 43.0801 13.2715V10.3594C42.7559 9.76172 42.2578 9.46289 41.5859 9.46289C41.0547 9.46289 40.6406 9.66797 40.3438 10.0781C40.0469 10.4883 39.8984 11.0957 39.8984 11.9004ZM49.7656 14.373C49.3438 14.8691 48.7246 15.1172 47.9082 15.1172C47.2324 15.1172 46.7168 14.9219 46.3613 14.5312C46.0098 14.1367 45.832 13.5547 45.8281 12.7852V8.66016H46.9121V12.7559C46.9121 13.7168 47.3027 14.1973 48.084 14.1973C48.9121 14.1973 49.4629 13.8887 49.7363 13.2715V8.66016H50.8203V15H49.7891L49.7656 14.373ZM55.0156 14.2324C55.4023 14.2324 55.7402 14.1152 56.0293 13.8809C56.3184 13.6465 56.4785 13.3535 56.5098 13.002H57.5352C57.5156 13.3652 57.3906 13.7109 57.1602 14.0391C56.9297 14.3672 56.6211 14.6289 56.2344 14.8242C55.8516 15.0195 55.4453 15.1172 55.0156 15.1172C54.1523 15.1172 53.4648 14.8301 52.9531 14.2559C52.4453 13.6777 52.1914 12.8887 52.1914 11.8887V11.707C52.1914 11.0898 52.3047 10.541 52.5312 10.0605C52.7578 9.58008 53.082 9.20703 53.5039 8.94141C53.9297 8.67578 54.4316 8.54297 55.0098 8.54297C55.7207 8.54297 56.3105 8.75586 56.7793 9.18164C57.252 9.60742 57.5039 10.1602 57.5352 10.8398H56.5098C56.4785 10.4297 56.3223 10.0938 56.041 9.83203C55.7637 9.56641 55.4199 9.43359 55.0098 9.43359C54.459 9.43359 54.0312 9.63281 53.7266 10.0312C53.4258 10.4258 53.2754 10.998 53.2754 11.748V11.9531C53.2754 12.6836 53.4258 13.2461 53.7266 13.6406C54.0273 14.0352 54.457 14.2324 55.0156 14.2324ZM62.668 15C62.6055 14.875 62.5547 14.6523 62.5156 14.332C62.0117 14.8555 61.4102 15.1172 60.7109 15.1172C60.0859 15.1172 59.5723 14.9414 59.1699 14.5898C58.7715 14.2344 58.5723 13.7852 58.5723 13.2422C58.5723 12.582 58.8223 12.0703 59.3223 11.707C59.8262 11.3398 60.5332 11.1562 61.4434 11.1562H62.498V10.6582C62.498 10.2793 62.3848 9.97852 62.1582 9.75586C61.9316 9.5293 61.5977 9.41602 61.1562 9.41602C60.7695 9.41602 60.4453 9.51367 60.1836 9.70898C59.9219 9.9043 59.791 10.1406 59.791 10.418H58.7012C58.7012 10.1016 58.8125 9.79688 59.0352 9.50391C59.2617 9.20703 59.5664 8.97266 59.9492 8.80078C60.3359 8.62891 60.7598 8.54297 61.2207 8.54297C61.9512 8.54297 62.5234 8.72656 62.9375 9.09375C63.3516 9.45703 63.5664 9.95898 63.582 10.5996V13.5176C63.582 14.0996 63.6562 14.5625 63.8047 14.9062V15H62.668ZM60.8691 14.1738C61.209 14.1738 61.5312 14.0859 61.8359 13.9102C62.1406 13.7344 62.3613 13.5059 62.498 13.2246V11.9238H61.6484C60.3203 11.9238 59.6562 12.3125 59.6562 13.0898C59.6562 13.4297 59.7695 13.6953 59.9961 13.8867C60.2227 14.0781 60.5137 14.1738 60.8691 14.1738ZM66.752 7.125V8.66016H67.9355V9.49805H66.752V13.4297C66.752 13.6836 66.8047 13.875 66.9102 14.0039C67.0156 14.1289 67.1953 14.1914 67.4492 14.1914C67.5742 14.1914 67.7461 14.168 67.9648 14.1211V15C67.6797 15.0781 67.4023 15.1172 67.1328 15.1172C66.6484 15.1172 66.2832 14.9707 66.0371 14.6777C65.791 14.3848 65.668 13.9688 65.668 13.4297V9.49805H64.5137V8.66016H65.668V7.125H66.752ZM70.3848 15H69.3008V8.66016H70.3848V15ZM69.2129 6.97852C69.2129 6.80273 69.2656 6.6543 69.3711 6.5332C69.4805 6.41211 69.6406 6.35156 69.8516 6.35156C70.0625 6.35156 70.2227 6.41211 70.332 6.5332C70.4414 6.6543 70.4961 6.80273 70.4961 6.97852C70.4961 7.1543 70.4414 7.30078 70.332 7.41797C70.2227 7.53516 70.0625 7.59375 69.8516 7.59375C69.6406 7.59375 69.4805 7.53516 69.3711 7.41797C69.2656 7.30078 69.2129 7.1543 69.2129 6.97852ZM71.8379 11.7715C71.8379 11.1504 71.959 10.5918 72.2012 10.0957C72.4473 9.59961 72.7871 9.2168 73.2207 8.94727C73.6582 8.67773 74.1562 8.54297 74.7148 8.54297C75.5781 8.54297 76.2754 8.8418 76.8066 9.43945C77.3418 10.0371 77.6094 10.832 77.6094 11.8242V11.9004C77.6094 12.5176 77.4902 13.0723 77.252 13.5645C77.0176 14.0527 76.6797 14.4336 76.2383 14.707C75.8008 14.9805 75.2969 15.1172 74.7266 15.1172C73.8672 15.1172 73.1699 14.8184 72.6348 14.2207C72.1035 13.623 71.8379 12.832 71.8379 11.8477V11.7715ZM72.9277 11.9004C72.9277 12.6035 73.0898 13.168 73.4141 13.5938C73.7422 14.0195 74.1797 14.2324 74.7266 14.2324C75.2773 14.2324 75.7148 14.0176 76.0391 13.5879C76.3633 13.1543 76.5254 12.5488 76.5254 11.7715C76.5254 11.0762 76.3594 10.5137 76.0273 10.084C75.6992 9.65039 75.2617 9.43359 74.7148 9.43359C74.1797 9.43359 73.748 9.64648 73.4199 10.0723C73.0918 10.498 72.9277 11.1074 72.9277 11.9004ZM79.9941 8.66016L80.0293 9.45703C80.5137 8.84766 81.1465 8.54297 81.9277 8.54297C83.2676 8.54297 83.9434 9.29883 83.9551 10.8105V15H82.8711V10.8047C82.8672 10.3477 82.7617 10.0098 82.5547 9.79102C82.3516 9.57227 82.0332 9.46289 81.5996 9.46289C81.248 9.46289 80.9395 9.55664 80.6738 9.74414C80.4082 9.93164 80.2012 10.1777 80.0527 10.4824V15H78.9688V8.66016H79.9941Z" fill="#595959"/>
<rect x="0.5" y="0.5" width="92" height="21" rx="3.5" stroke="#D9D9D9"/>
</svg>
