<svg width="30" height="30" viewBox="0 0 30 30" fill="none" xmlns="http://www.w3.org/2000/svg">
<path d="M15 1.875C7.75195 1.875 1.875 7.75195 1.875 15C1.875 22.248 7.75195 28.125 15 28.125C22.248 28.125 28.125 22.248 28.125 15C28.125 7.75195 22.248 1.875 15 1.875ZM23.4521 21.8789L8.13574 6.5625C7.55859 7.03125 7.03125 7.55859 6.5625 8.13574L21.8789 23.4521C20.0039 24.9814 17.6074 25.8984 15 25.8984C8.98242 25.8984 4.10156 21.0176 4.10156 15C4.10156 8.98242 8.98242 4.10156 15 4.10156C21.0176 4.10156 25.8984 8.98242 25.8984 15C25.8984 17.6074 24.9814 20.0039 23.4521 21.8789Z" fill="#1890FF"/>
<path d="M15 4.10156C8.98242 4.10156 4.10156 8.98242 4.10156 15C4.10156 21.0176 8.98242 25.8984 15 25.8984C17.6074 25.8984 20.0039 24.9814 21.8789 23.4521L6.5625 8.13574C7.03125 7.55859 7.55859 7.03125 8.13574 6.5625L23.4521 21.8789C24.9814 20.0039 25.8984 17.6074 25.8984 15C25.8984 8.98242 21.0176 4.10156 15 4.10156Z" fill="#FFE0E0"/>
</svg>
