<svg width="78" height="19" viewBox="0 0 78 19" fill="none" xmlns="http://www.w3.org/2000/svg">
<rect width="51.2571" height="19" rx="9.5" fill="#CDFFCD"/>
<path d="M18.357 6.40625H21.0758V14H22.3883V6.40625H25.1113V5.27273H18.357V6.40625ZM27.5158 14.1449C28.5981 14.1449 29.2075 13.5952 29.4504 13.1051H29.5016V14H30.7459V9.65341C30.7459 7.74858 29.2459 7.36932 28.2061 7.36932C27.0214 7.36932 25.9305 7.84659 25.5044 9.03977L26.7018 9.3125C26.8893 8.84801 27.3666 8.40057 28.2231 8.40057C29.0456 8.40057 29.4675 8.83097 29.4675 9.57244V9.60227C29.4675 10.0668 28.9902 10.0582 27.8141 10.1946C26.574 10.3395 25.3041 10.6634 25.3041 12.1506C25.3041 13.4375 26.2714 14.1449 27.5158 14.1449ZM27.7927 13.1222C27.0726 13.1222 26.5527 12.7983 26.5527 12.1676C26.5527 11.4858 27.1578 11.2429 27.895 11.1449C28.3084 11.0895 29.2885 10.9787 29.4717 10.7955V11.6392C29.4717 12.4148 28.8538 13.1222 27.7927 13.1222ZM37.3478 9.05256C37.0836 8.03409 36.2867 7.36932 34.8719 7.36932C33.3932 7.36932 32.3449 8.14915 32.3449 9.30824C32.3449 10.2372 32.9074 10.8551 34.1347 11.1278L35.2427 11.3707C35.8734 11.5114 36.1674 11.7926 36.1674 12.2017C36.1674 12.7088 35.6262 13.1051 34.791 13.1051C34.0282 13.1051 33.5381 12.777 33.3847 12.1335L32.1532 12.321C32.3663 13.4801 33.3293 14.1321 34.7995 14.1321C36.3805 14.1321 37.4756 13.2926 37.4756 12.108C37.4756 11.1832 36.8876 10.6122 35.6859 10.3352L34.6461 10.0966C33.9259 9.92614 33.6148 9.68324 33.6191 9.24006C33.6148 8.73722 34.1603 8.37926 34.8847 8.37926C35.6773 8.37926 36.0438 8.81818 36.193 9.2571L37.3478 9.05256ZM38.8766 14H40.1507V11.6776L40.7856 11.0426L43.0101 14H44.574L41.7445 10.2628L44.395 7.45455H42.8695L40.2615 10.2244H40.1507V5.27273H38.8766V14Z" fill="#007F00"/>
<ellipse cx="8.91439" cy="10" rx="3.34286" ry="3" fill="#007F00"/>
</svg>
